<?xml version="1.0" encoding="UTF-8" standalone="no"?>
<svg
   xmlns:dc="http://purl.org/dc/elements/1.1/"
   xmlns:cc="http://creativecommons.org/ns#"
   xmlns:rdf="http://www.w3.org/1999/02/22-rdf-syntax-ns#"
   xmlns:svg="http://www.w3.org/2000/svg"
   xmlns="http://www.w3.org/2000/svg"
   xmlns:sodipodi="http://sodipodi.sourceforge.net/DTD/sodipodi-0.dtd"
   xmlns:inkscape="http://www.inkscape.org/namespaces/inkscape"
   sodipodi:docname="codewars.svg"
   inkscape:version="1.0 (4035a4fb49, 2020-05-01)"
   id="svg8"
   version="1.1"
   viewBox="0 0 86.783331 86.783328"
   height="327.99997"
   width="328">
  <defs
     id="defs2" />
  <sodipodi:namedview
     inkscape:window-maximized="1"
     inkscape:window-y="-8"
     inkscape:window-x="-8"
     inkscape:window-height="1017"
     inkscape:window-width="1920"
     fit-margin-bottom="0"
     fit-margin-right="0"
     fit-margin-left="0"
     fit-margin-top="0"
     units="px"
     inkscape:pagecheckerboard="true"
     showgrid="false"
     inkscape:document-rotation="0"
     inkscape:current-layer="layer1"
     inkscape:document-units="px"
     inkscape:cy="184.64435"
     inkscape:cx="211.87567"
     inkscape:zoom="1.3629885"
     inkscape:pageshadow="2"
     inkscape:pageopacity="0.0"
     borderopacity="1.0"
     bordercolor="#666666"
     pagecolor="#ffffff"
     id="base" />
  <metadata
     id="metadata5">
    <rdf:RDF>
      <cc:Work
         rdf:about="">
        <dc:format>image/svg+xml</dc:format>
        <dc:type
           rdf:resource="http://purl.org/dc/dcmitype/StillImage" />
        <dc:title></dc:title>
      </cc:Work>
    </rdf:RDF>
  </metadata>
  <g
     transform="translate(-185.7296,-93.145353)"
     id="layer1"
     inkscape:groupmode="layer"
     inkscape:label="Layer 1">
    <g
       transform="translate(120.38015,4.2551707)"
       id="g32">
      <path
         sodipodi:nodetypes="ccccc"
         id="path36"
         d="M 65.349449,88.890182 H 152.13278 V 175.67351 H 65.349449 Z"
         style="fill:#9e2c22;stroke-width:0.264583" />
      <path
         d="m 110.01608,169.855 c -1.18138,-0.34079 -2.00571,-1.44144 -3.35902,-0.86948 -1.47533,0.27094 -3.40034,0.0277 -4.13365,-1.43638 -1.24626,-0.24772 -2.758056,-0.0327 -3.352213,-1.41693 -0.622839,-1.22849 -1.943316,-1.0432 -2.622968,-2.29023 -1.699468,-0.34207 -3.770759,0.29318 -5.060442,-1.12598 -1.02357,-1.23287 -2.488088,0.4103 -3.808625,-0.008 -1.614712,0.15116 -3.618267,-0.296 -4.218882,-1.98051 -0.330653,-1.58877 -1.815971,-1.16253 -3.040097,-1.19209 -1.181917,-0.70345 -2.436755,-1.33979 -2.840757,-2.75923 -0.208437,-1.37253 -0.712229,-2.36265 -2.185548,-2.68271 -1.165202,-0.60769 -1.814636,-2.03193 -1.575976,-3.34231 0.603161,-1.62779 -1.282524,-1.98079 -1.500829,-3.36352 -0.173373,-1.49949 -0.300139,-3.00649 -0.670696,-4.47418 1.146425,-0.32383 2.177122,-1.91377 0.569565,-2.37444 -1.520997,-0.33622 -0.07035,-1.83975 -0.5894,-2.86757 -0.04963,-1.3706 -0.176621,-2.76888 0.392947,-4.05748 -1.458004,-0.2199 -2.153472,-1.65212 -2.751572,-2.81055 -0.145317,-1.34057 -0.456925,-2.71486 0.538288,-3.82417 1.04893,-1.10381 0.56279,-2.38905 0.170445,-3.66321 -0.208339,-1.22373 0.206081,-2.77483 1.361856,-3.42895 1.729944,-0.79871 0.731628,-3.10323 2.135031,-4.20977 1.179877,-0.596 1.598565,-1.54253 2.093805,-2.36057 1.089563,-0.48459 1.762036,-1.62164 2.688616,-2.36118 -0.798409,-0.72028 -1.074192,-2.8715 0.347974,-1.53631 0.896033,1.49691 2.076968,0.19246 3.351083,0.1865 1.458226,0.16792 2.209847,-0.51936 2.337579,-1.96171 0.653255,-1.54177 2.256144,-2.44423 3.739296,-3.11634 0.02627,-1.38069 0.494381,-2.52765 1.681078,-3.29447 1.292075,-0.98026 2.873891,-1.668957 4.46648,-2.030724 0.456144,-1.38426 1.562466,-2.46843 3.073247,-2.546754 1.299915,-0.536625 2.723826,1.156481 3.861345,0.488203 0.90503,-0.764247 1.93554,-1.741016 3.10326,-1.864812 1.17233,0.790633 2.16151,-0.04707 3.29468,0.58079 1.1282,0.06133 2.79092,1.315212 3.5521,0.253475 1.22603,-1.949061 0.73584,1.504171 2.0708,1.313901 2.07792,0.388568 3.13604,3.048301 5.42008,2.844891 1.56718,-0.24423 2.94806,0.36437 4.30708,1.07305 1.89038,-0.26048 3.80478,-0.9654 5.63367,-0.0887 1.07032,0.51068 1.68991,1.86849 2.56183,2.4818 1.48893,0.17415 3.2156,-0.27478 4.25185,1.08581 1.52869,0.62353 0.7212,3.17037 2.63516,3.25478 1.15896,0.35951 2.70356,1.33306 2.54651,2.6827 -0.66549,1.73333 1.05983,1.76131 1.49108,2.91747 0.58658,1.15228 -0.93079,2.78583 0.49817,3.51498 0.9295,0.85182 0.69653,2.26584 -0.0228,3.20028 -0.31887,1.10496 -0.23934,2.37364 0.91973,2.95337 0.92862,1.4261 1.01247,3.1713 0.68558,4.8122 1.57155,0.39647 2.21239,1.87173 3.08064,3.08339 0.10761,1.92472 -0.32607,3.94043 0.0338,5.80364 0.88319,1.20166 0.41566,2.87441 -0.79149,3.66322 -1.42352,0.72129 -1.13104,2.05547 -0.88619,3.37263 0.0211,1.18039 -0.53824,2.64671 -1.75467,3.06369 -1.13682,0.49653 -0.70983,2.16986 -1.93927,2.77816 -0.9418,0.73775 -2.47905,0.86993 -2.58674,2.33486 -0.7103,1.23495 -1.98229,1.36872 -3.27604,1.45984 -1.10512,0.31312 -1.98542,1.5351 -2.14443,2.69152 -0.80937,0.57179 -2.46313,0.21939 -2.89051,1.82154 -0.7017,0.69604 -2.90723,0.69351 -2.75008,1.71782 0.16804,1.24842 -1.01647,2.44612 -1.39484,3.67405 -0.93207,0.84725 -1.88086,2.08912 -3.30609,1.73275 -1.41979,-0.27556 -2.42635,0.10802 -2.74098,1.5953 -0.62551,1.92385 -2.91461,1.71682 -4.5476,1.91635 -1.26074,-1.00685 -2.30386,-0.2849 -3.31953,0.6552 -0.92824,0.18257 -1.90751,0.79085 -2.83273,0.33154 z m -1.00621,-7.01755 c 1.04654,-0.85856 2.68134,-0.21349 3.97634,-0.43698 0.99427,-0.17844 1.63582,-1.38681 2.76636,-1.64822 1.18889,-0.19689 2.69846,0.0703 2.96095,-1.46727 0.53312,-1.58599 1.89303,-2.49788 3.46045,-2.87364 0.72976,-0.63373 -0.41763,-2.24161 0.41648,-3.23513 0.23635,-1.41863 1.54834,-2.27528 2.31089,-3.41899 -1.08638,-1.00618 -0.82044,-2.34799 -0.64653,-3.66696 0.60486,-1.20983 0.94783,-2.28278 -0.40564,-3.13945 -1.32217,-0.89148 0.32093,-3.02254 -1.40723,-3.62579 -1.30361,-0.60926 -1.58333,-1.93618 -1.96576,-3.19111 -1.19769,-0.0984 -2.29726,-0.63885 -3.35173,-1.02114 -1.49165,0.56434 -0.67708,-1.61664 -2.27419,-1.86785 -1.17803,-0.67335 -2.18893,0.77985 -2.09125,1.89986 -0.3448,1.29191 2.03738,1.67759 1.53907,3.1106 -0.39428,1.39595 0.68653,2.41076 1.05725,3.57031 0.08,1.28466 -0.72956,2.26229 -1.05173,3.27425 0.16036,1.31828 0.47061,2.66456 -0.4607,3.7788 -0.097,1.48774 -2.43748,1.10442 -1.92676,2.69246 -0.0832,2.11993 -1.88493,3.86745 -3.91545,4.28749 -1.33571,0.46331 -0.58938,2.47902 -1.83575,3.15787 -1.06804,1.73353 -3.18601,2.02275 -5.05295,1.83952 -1.717566,0.57387 1.38882,0.83563 2.06742,1.17531 1.01121,0.92128 2.17403,1.08488 3.4567,0.64959 0.76235,0.10367 1.67493,1.15738 2.37376,0.15647 z m -17.731254,-8.72748 c 0.774944,-2.42628 0.610265,0.7858 1.356398,0.73487 1.704115,-0.38455 3.62095,0.0145 5.212975,-0.62711 1.496644,-0.92376 2.952931,-2.38397 4.842501,-2.09212 1.44756,-0.28425 0.78819,-1.81791 1.77026,-2.67659 0.57861,-1.24921 2.7972,-1.19288 2.55463,-2.87996 -0.48157,-1.63811 1.87056,-1.86878 1.35619,-3.29724 -0.70065,-1.25733 0.56096,-2.20346 0.28982,-3.36415 -0.52318,-1.13538 -0.18952,-2.60815 -0.40894,-3.49975 -0.45147,0.15706 -1.05717,1.54175 -2.2233,1.53019 -0.69611,0.59665 -0.68906,2.11109 -1.85942,2.79492 -1.09187,0.44755 -2.01961,0.86708 -2.22268,2.25774 -1.16013,0.81909 -2.53384,1.09296 -3.949584,0.93276 -1.173801,0.80007 -2.196528,2.04641 -3.765314,1.67967 -1.574967,0.0966 -3.249811,-0.23942 -4.62342,0.66181 -1.223957,0.28786 -2.426498,0.4431 -3.465395,-0.41501 -1.097899,-0.35389 -1.531961,-2.40763 -2.898026,-1.26327 -1.15455,0.78646 -2.481479,0.28738 -3.448369,-0.11803 -1.513196,-0.10873 -0.458474,1.86378 -0.458701,2.79193 0.339026,1.2832 1.850186,1.94418 2.179516,3.31257 0.604366,1.09475 2.422473,0.65826 3.078518,1.88723 0.838605,0.99925 2.629785,-0.34894 2.210217,1.70133 1.090961,0.11326 2.465349,-0.0124 3.517932,0.72632 0.724166,0.49378 0.775964,-0.2401 0.954192,-0.77811 z m 43.757754,-5.95388 c 1.13214,-0.83577 0.8221,-2.21924 2.18015,-2.85721 1.51428,-0.54812 0.32149,-2.27182 1.5743,-3.03428 1.25662,-0.86074 -0.0448,-2.19976 0.16159,-3.42819 -0.63977,-1.31794 1.22911,-2.71523 0.0208,-3.75285 -1.34203,-1.10656 -1.003,-2.84953 -1.19175,-4.39269 -1.30036,-0.51267 -2.6087,-1.01528 -3.25453,-2.35433 -0.87261,-0.90206 -1.73727,-2.08376 -2.78588,-2.66927 -1.3955,0.0811 -2.46461,-1.13118 -3.16838,0.67247 -1.43988,0.53625 -0.58436,-1.93877 -0.9455,-2.43262 -1.85158,-0.18107 -3.7744,-1.2465 -5.52919,-0.2264 -1.28792,0.20206 -2.66921,-0.0652 -3.75461,0.86876 -1.08487,0.66829 -2.56221,-0.0941 -3.32356,1.26102 -0.79766,0.8728 -2.51914,0.71677 -2.5745,2.24294 0.14536,1.09474 2.23998,0.42844 3.15875,0.85618 1.4958,0.14745 2.97284,0.35269 4.22331,1.2555 1.60572,-0.13184 3.22543,0.79908 3.79189,2.33179 0.84089,0.6467 2.58697,0.20419 3.50217,1.05218 0.93747,0.90767 0.78229,2.15468 0.80209,3.34735 1.48428,0.61037 2.5898,1.66628 3.46527,2.99282 0.59685,1.05114 -0.85981,2.93069 0.64415,3.51204 1.35824,0.7572 1.52327,2.52597 1.17548,3.90722 -0.50101,1.00017 0.70801,2.84907 1.45361,1.26304 0.12446,-0.13859 0.25115,-0.27646 0.37437,-0.41547 z m -42.302546,-8.85515 c 1.36314,-0.88992 3.282266,0.28735 4.315473,-1.20577 0.776214,-1.29365 2.925242,0.36201 3.327173,-1.24142 0.73013,-0.99591 2.38948,-0.99948 2.87092,-2.32841 1.37367,-1.31938 -0.41046,-1.97197 -1.61403,-1.4052 -1.33524,0.25005 -2.662345,0.45351 -3.79259,-0.4708 -1.066783,-0.52315 -2.304345,-0.36544 -3.321009,-1.15017 -1.416625,-0.29351 -1.608004,-1.24093 -2.485194,-2.12769 -1.295046,0.20927 -2.401857,-0.15267 -3.317295,-1.09538 -0.220176,-0.87622 0.225877,-2.53757 -0.913708,-2.87337 -1.183079,-0.25335 -2.466272,-0.81906 -2.678084,-2.15767 -0.375925,-1.11704 -0.350722,-2.47948 0.384572,-3.46146 -0.731676,-1.01674 -2.577285,-1.60295 -2.449572,-2.95186 -0.134678,-0.81636 0.880715,-3.06057 -0.564905,-2.66808 -0.964284,0.69813 -1.203762,2.23514 -2.411851,2.71867 -0.695243,1.48131 -1.233204,3.06724 -2.520417,4.15478 -0.13872,1.65628 -0.244265,3.31568 -0.439898,4.96663 1.117167,0.59619 2.656024,0.93181 1.222686,2.12609 0.01988,1.10798 -1.237539,3.26101 0.405159,3.44153 1.177676,0.14469 1.954665,1.37591 2.47319,2.26905 -0.279791,1.4654 1.052831,2.41951 2.351534,2.64275 1.584938,0.0314 2.038942,1.66639 2.940756,2.40088 1.498083,-0.0577 3.14232,-0.76097 4.348265,0.47142 0.619592,0.63339 1.185154,0.15365 1.868825,-0.0545 z M 103.8193,129.01606 c 0.48554,-0.94436 -1.67458,-1.33903 -0.89902,-2.80887 -1.06148,-0.58222 -2.60929,-0.86659 -2.11666,-2.40062 0.70157,-0.98319 0.98124,-1.9583 0.10439,-2.93824 -0.58105,-1.13515 0.58233,-2.13392 0.68019,-3.15235 -0.45951,-1.21103 -0.76382,-2.40658 0.17107,-3.47857 0.23636,-1.35861 2.9782,-1.18535 1.8193,-2.78082 -1.08029,-1.72217 0.61735,-3.7803 2.42361,-3.91329 1.77129,0.0721 1.18664,-1.38582 1.91703,-2.45793 0.20167,-1.25568 1.99626,-1.56751 1.61566,-2.93705 -0.13613,-1.14427 -2.33374,-0.3269 -3.30435,-0.6771 -1.45316,0.006 -2.90654,0.12608 -4.35979,0.17471 -0.55825,1.20467 -1.34754,2.14074 -2.730204,2.31722 -1.525553,-0.0152 -1.65552,1.33673 -1.955707,2.52194 -0.916797,0.712 -2.391262,1.1066 -2.995787,1.99633 0.09529,1.44996 -0.607692,2.90538 -1.629677,3.91278 0.73402,0.9787 0.747943,2.52881 0.389684,3.54177 -1.115234,0.41361 -1.924338,1.97209 -1.453203,2.96817 0.840834,0.981 1.760865,1.92896 1.616245,3.3212 -0.08235,1.37384 2.170166,0.93528 2.24441,2.41849 0.337516,1.3888 1.205509,1.56749 2.388255,1.85814 1.176533,0.45722 1.354761,2.14788 2.950044,1.54672 1.28898,-0.20639 1.35817,2.23138 2.83291,1.45524 0.0972,-0.16263 0.1946,-0.32519 0.2916,-0.48787 z m 5.24709,-4.30423 c 1.16522,-0.82821 1.36003,-2.54732 2.87916,-2.82842 1.43608,-0.37348 1.45849,-2.41383 3.01191,-2.68836 1.10118,-0.44154 2.62816,0.40092 3.33749,-0.92407 0.84691,-1.14308 2.5009,-1.1157 3.78301,-1.01 1.31486,0.7656 2.07102,-0.8407 3.35122,-0.6887 1.47001,-0.0692 3.05783,-0.62774 4.22006,0.58139 1.02487,1.32588 2.14936,0.22553 3.39125,0.38886 1.33581,-0.13526 2.5043,1.1603 3.74646,0.6721 0.45752,-1.45748 -1.45848,-2.08435 -1.05436,-3.52139 0.0741,-1.41996 -2.25981,-1.23475 -2.65701,-2.53921 -0.36063,-1.83885 -2.07552,-1.03192 -3.32144,-1.50861 -1.35789,-0.28881 -0.77235,-2.69513 -2.4965,-2.17132 -1.64776,-0.0833 -3.34196,10e-4 -4.71997,-1.05689 -1.50806,0.69712 -2.96125,1.64067 -4.69683,1.31592 -0.7914,0.71225 -1.87892,0.60195 -2.90551,1.3326 -0.84576,0.87952 -3.02153,-0.13076 -3.27626,1.27948 -0.28076,1.36567 -0.73808,2.99026 -2.38873,3.12964 -1.42827,0.25223 -0.43105,2.3328 -1.30621,3.22333 -1.05139,0.58409 -0.77982,1.77253 -0.84128,3.03585 -0.14338,1.74328 0.16814,3.46562 0.29481,5.19842 0.81144,0.18634 1.09036,-0.81754 1.64873,-1.22062 z"
         style="fill:#352627;stroke-width:0.264583"
         id="path34" />
    </g>
  </g>
</svg>
