<?xml version="1.0" encoding="UTF-8" standalone="no"?>
<svg
   xmlns:dc="http://purl.org/dc/elements/1.1/"
   xmlns:cc="http://creativecommons.org/ns#"
   xmlns:rdf="http://www.w3.org/1999/02/22-rdf-syntax-ns#"
   xmlns:svg="http://www.w3.org/2000/svg"
   xmlns="http://www.w3.org/2000/svg"
   xmlns:sodipodi="http://sodipodi.sourceforge.net/DTD/sodipodi-0.dtd"
   xmlns:inkscape="http://www.inkscape.org/namespaces/inkscape"
   width="1333.3333"
   height="1333.3334"
   viewBox="0 0 352.77777 352.7778"
   version="1.1"
   id="svg8"
   inkscape:version="1.0 (4035a4fb49, 2020-05-01)"
   sodipodi:docname="hackerrank_logo.svg">
  <defs
     id="defs2" />
  <sodipodi:namedview
     id="base"
     pagecolor="#ffffff"
     bordercolor="#666666"
     borderopacity="1.0"
     inkscape:pageopacity="0.0"
     inkscape:pageshadow="2"
     inkscape:zoom="0.2345748"
     inkscape:cx="581.44474"
     inkscape:cy="712.22322"
     inkscape:document-units="px"
     inkscape:current-layer="layer1"
     inkscape:document-rotation="0"
     showgrid="false"
     inkscape:pagecheckerboard="true"
     inkscape:snap-global="false"
     fit-margin-top="0"
     fit-margin-left="0"
     fit-margin-right="0"
     fit-margin-bottom="0"
     units="px"
     inkscape:window-width="1920"
     inkscape:window-height="1017"
     inkscape:window-x="-8"
     inkscape:window-y="-8"
     inkscape:window-maximized="1" />
  <metadata
     id="metadata5">
    <rdf:RDF>
      <cc:Work
         rdf:about="">
        <dc:format>image/svg+xml</dc:format>
        <dc:type
           rdf:resource="http://purl.org/dc/dcmitype/StillImage" />
        <dc:title></dc:title>
      </cc:Work>
    </rdf:RDF>
  </metadata>
  <g
     inkscape:groupmode="layer"
     id="layer2"
     inkscape:label="background"
     transform="translate(528.0851,13.692336)">
    <path
       id="path66"
       d="M -528.0851,162.69656 V -13.692336 h 176.38888 176.38889 V 162.69656 339.08544 H -351.69622 -528.0851 Z"
       style="fill:#0c131d;stroke-width:0.352778"
       sodipodi:nodetypes="ccccccccc" />
  </g>
  <g
     inkscape:label="Layer 1"
     inkscape:groupmode="layer"
     id="layer1"
     style="display:inline"
     transform="translate(528.0851,13.692336)">
    <g
       id="g77"
       transform="matrix(0.90485531,0,0,0.90485531,-75.103306,-7.3710171)">
      <path
         style="fill:#fcfcfc;stroke-width:0.503996"
         d="m -441.12534,271.57298 -0.88199,-0.51371 V 187.9427 104.82613 l 0.97487,-0.52175 0.97485,-0.52171 h 19.14899 19.14898 l 0.79199,0.79199 0.792,0.792 v 30.70776 30.70775 h 20.91582 20.91584 v -30.49175 -30.49177 l 1.008,-1.008 1.00799,-1.00798 h 19.0397 19.03971 l 1.12013,0.78457 1.12014,0.78457 v 82.5982 82.59819 l -1.12014,0.78458 -1.12013,0.78458 h -19.03971 -19.0397 l -1.00799,-1.008 -1.008,-1.008 V 239.6096 209.11784 h -20.91584 -20.91582 v 30.70776 30.70775 l -0.792,0.792 -0.79199,0.79201 -19.24185,-0.0153 -19.24184,-0.0153 -0.88201,-0.51371 z"
         id="path70" />
      <path
         style="fill:#00e862;stroke-width:0.503996"
         d="m -294.55991,270.99721 -0.78457,-1.12014 v -81.92706 -81.92707 l 0.78457,-1.12014 0.78458,-1.12013 h 61.24007 61.24008 l 0.97485,0.52171 0.97487,0.52175 v 83.12388 83.12389 l -0.97487,0.52173 -0.97485,0.52173 h -61.24008 -61.24007 z"
         id="path68" />
    </g>
  </g>
</svg>
